<?xml version="1.0" encoding="utf-8"?>
<!-- Generator: Adobe Illustrator 24.3.0, SVG Export Plug-In . SVG Version: 6.00 Build 0)  -->
<svg version="1.1" id="Layer_1" xmlns="http://www.w3.org/2000/svg" xmlns:xlink="http://www.w3.org/1999/xlink" x="0px" y="0px"
	 viewBox="0 0 652 584.03" style="enable-background:new 0 0 652 584.03;" xml:space="preserve">
<style type="text/css">
	.st0{fill:url(#SVGID_1_);}
	.st1{fill:url(#SVGID_2_);}
	.st2{fill:url(#SVGID_3_);}
	.st3{fill:url(#SVGID_4_);}
	.st4{fill:url(#SVGID_5_);}
	.st5{fill:url(#SVGID_6_);}
	.st6{fill:url(#SVGID_7_);}
</style>
<g>
	
		<linearGradient id="SVGID_1_" gradientUnits="userSpaceOnUse" x1="240.1344" y1="323.502" x2="623.8868" y2="144.2878" gradientTransform="matrix(0.8693 0.4943 -0.4943 0.8693 89.6212 -94.0184)">
		<stop  offset="0" style="stop-color:#FF5A1C"/>
		<stop  offset="1" style="stop-color:#FFD727"/>
	</linearGradient>
	<path class="st0" d="M441.12,174.81c-3.5-1.99-7.02-3.9-10.55-5.74c71.98,50.52,109.96,81.89,78.47,137.27
		c-34.36,60.41-132.01,69.69-218.12,20.73c-86.11-48.97-133.39-89.91-99.03-150.33c2.3-4.05,4.91-7.85,7.76-11.44
		c-12.94,9.61-23.73,21.51-31.77,35.63c-43.08,75.75,9.41,186.87,117.24,248.19c107.83,61.32,230.16,49.62,273.24-26.13
		C601.44,347.25,548.95,236.13,441.12,174.81z"/>
	
		<linearGradient id="SVGID_2_" gradientUnits="userSpaceOnUse" x1="240.1344" y1="323.502" x2="623.8868" y2="144.2878" gradientTransform="matrix(0.8693 0.4943 -0.4943 0.8693 89.6212 -94.0184)">
		<stop  offset="0" style="stop-color:#FFD727"/>
		<stop  offset="1" style="stop-color:#FF5A1C"/>
	</linearGradient>
	<path class="st1" d="M441.12,174.81c-3.5-1.99-7.02-3.9-10.55-5.74c71.98,50.52,104.63,129.62,73.14,185
		c-34.36,60.41-132.01,69.69-218.12,20.73c-86.11-48.97-128.06-137.64-93.7-198.05c2.3-4.05,4.91-7.85,7.76-11.44
		c-12.94,9.61-23.73,21.51-31.77,35.63c-43.08,75.75,9.41,186.87,117.24,248.19c107.83,61.32,230.16,49.62,273.24-26.13
		C601.44,347.25,548.95,236.13,441.12,174.81z"/>
	<linearGradient id="SVGID_3_" gradientUnits="userSpaceOnUse" x1="354.1647" y1="90.5832" x2="85.9317" y2="542.686">
		<stop  offset="0" style="stop-color:#FFD727"/>
		<stop  offset="1" style="stop-color:#FF5A1C"/>
	</linearGradient>
	<path class="st2" d="M325.64,14.75L5.49,568.83h0c86.82,0,167.06-46.31,210.5-121.48l179.8-311.18L325.64,14.75z"/>
	<linearGradient id="SVGID_4_" gradientUnits="userSpaceOnUse" x1="408.9949" y1="5.4014" x2="102.7419" y2="521.5862">
		<stop  offset="0" style="stop-color:#FF5A1C"/>
		<stop  offset="1" style="stop-color:#FFD727"/>
	</linearGradient>
	<path class="st3" d="M366.2,84.95L205.47,363.14C162.03,438.32,92.32,568.83,5.49,568.83c86.82,0,167.06-46.3,210.5-121.48
		l179.8-311.18L366.2,84.95z"/>
	<g>
		<linearGradient id="SVGID_5_" gradientUnits="userSpaceOnUse" x1="338.3483" y1="223.5012" x2="602.2553" y2="573.9353">
			<stop  offset="0" style="stop-color:#FF5A1C"/>
			<stop  offset="1" style="stop-color:#FFD727"/>
		</linearGradient>
		<path class="st4" d="M566.81,432.13c-19.64,32.23-52.92,54.26-94.89,63.46c45.16,46.22,107.59,73.24,173.88,73.24L566.81,432.13z"
			/>
		<linearGradient id="SVGID_6_" gradientUnits="userSpaceOnUse" x1="360.5633" y1="206.7707" x2="624.4704" y2="557.2048">
			<stop  offset="0" style="stop-color:#FF5A1C"/>
			<stop  offset="1" style="stop-color:#FFD727"/>
		</linearGradient>
		<path class="st5" d="M402.88,346.49c40.81,0,73.65-14.36,91.56-39.61l-98.64-170.71l-70.15,121.41l50.18,86.85
			C384.97,345.78,394.03,346.49,402.88,346.49z"/>
	</g>
	<linearGradient id="SVGID_7_" gradientUnits="userSpaceOnUse" x1="353.5167" y1="220.1147" x2="481.1282" y2="299.8553">
		<stop  offset="0" style="stop-color:#E7876F"/>
		<stop  offset="0.0337" style="stop-color:#EB9D89"/>
		<stop  offset="0.0836" style="stop-color:#F1B7A8"/>
		<stop  offset="0.1403" style="stop-color:#F5CEC4"/>
		<stop  offset="0.2043" style="stop-color:#F9E0DA"/>
		<stop  offset="0.279" style="stop-color:#FCEEEB"/>
		<stop  offset="0.3713" style="stop-color:#FEF8F6"/>
		<stop  offset="0.5009" style="stop-color:#FFFDFD"/>
		<stop  offset="0.8607" style="stop-color:#FFFFFF"/>
	</linearGradient>
	<path class="st6" d="M402.88,346.49c40.81,0,73.65-14.36,91.56-39.61l-98.64-170.71l-70.15,121.41l50.18,86.85
		C384.97,345.78,394.03,346.49,402.88,346.49z"/>
</g>
</svg>
